<mxfile host="app.diagrams.net" agent="Mozilla/5.0 (Windows NT 10.0; Win64; x64) AppleWebKit/537.36 (KHTML, like Gecko) Chrome/128.0.0.0 Safari/537.36" version="24.7.10">
  <diagram name="Page-1" id="iOYmFABcgLfnVLQrmPDC">
    <mxGraphModel dx="1268" dy="1105" grid="1" gridSize="10" guides="1" tooltips="1" connect="1" arrows="1" fold="1" page="1" pageScale="1" pageWidth="850" pageHeight="1100" math="0" shadow="0">
      <root>
        <mxCell id="0" />
        <mxCell id="1" parent="0" />
        <mxCell id="SD6BFe2wW6tSJZ-N4x0d-1" value="" style="edgeStyle=orthogonalEdgeStyle;rounded=0;orthogonalLoop=1;jettySize=auto;html=1;" edge="1" parent="1" source="SD6BFe2wW6tSJZ-N4x0d-2" target="SD6BFe2wW6tSJZ-N4x0d-4">
          <mxGeometry relative="1" as="geometry" />
        </mxCell>
        <mxCell id="SD6BFe2wW6tSJZ-N4x0d-2" value="Height, Room W,&lt;br&gt;Room D, Closet W,&lt;br&gt;Closet D, Main Door W,&lt;br&gt;Main Door H, Closet Door W,&lt;br&gt;Closet Door H,Window W,&lt;br&gt;Window H" style="shape=parallelogram;perimeter=parallelogramPerimeter;whiteSpace=wrap;html=1;fixedSize=1;fontStyle=1" vertex="1" parent="1">
          <mxGeometry x="40" y="10" width="200" height="90" as="geometry" />
        </mxCell>
        <mxCell id="SD6BFe2wW6tSJZ-N4x0d-3" value="" style="edgeStyle=orthogonalEdgeStyle;rounded=0;orthogonalLoop=1;jettySize=auto;html=1;" edge="1" parent="1" source="SD6BFe2wW6tSJZ-N4x0d-4" target="SD6BFe2wW6tSJZ-N4x0d-6">
          <mxGeometry relative="1" as="geometry" />
        </mxCell>
        <mxCell id="SD6BFe2wW6tSJZ-N4x0d-4" value="Start" style="ellipse;whiteSpace=wrap;html=1;fillColor=#d5e8d4;strokeColor=#82b366;" vertex="1" parent="1">
          <mxGeometry x="40" y="140" width="120" height="80" as="geometry" />
        </mxCell>
        <mxCell id="SD6BFe2wW6tSJZ-N4x0d-5" value="&lt;b&gt;Height,&lt;br&gt;Room W,&lt;br&gt;Room D&lt;/b&gt;" style="edgeStyle=orthogonalEdgeStyle;rounded=0;orthogonalLoop=1;jettySize=auto;html=1;" edge="1" parent="1" source="SD6BFe2wW6tSJZ-N4x0d-6" target="SD6BFe2wW6tSJZ-N4x0d-8">
          <mxGeometry relative="1" as="geometry">
            <mxPoint as="offset" />
          </mxGeometry>
        </mxCell>
        <mxCell id="SD6BFe2wW6tSJZ-N4x0d-6" value="&lt;b&gt;Coverage Rate&lt;/b&gt;&lt;br&gt;is 400" style="rounded=1;whiteSpace=wrap;html=1;" vertex="1" parent="1">
          <mxGeometry x="40" y="240" width="120" height="60" as="geometry" />
        </mxCell>
        <mxCell id="SD6BFe2wW6tSJZ-N4x0d-7" value="&lt;b&gt;Result&lt;/b&gt;" style="edgeStyle=orthogonalEdgeStyle;rounded=0;orthogonalLoop=1;jettySize=auto;html=1;" edge="1" parent="1" source="SD6BFe2wW6tSJZ-N4x0d-8" target="SD6BFe2wW6tSJZ-N4x0d-26">
          <mxGeometry relative="1" as="geometry" />
        </mxCell>
        <mxCell id="SD6BFe2wW6tSJZ-N4x0d-8" value="Calculate Space Area" style="shape=process;whiteSpace=wrap;html=1;backgroundOutline=1;" vertex="1" parent="1">
          <mxGeometry x="40" y="370" width="120" height="60" as="geometry" />
        </mxCell>
        <mxCell id="SD6BFe2wW6tSJZ-N4x0d-9" value="Calculate Space Area" style="swimlane;whiteSpace=wrap;html=1;" vertex="1" parent="1">
          <mxGeometry x="680" y="10" width="140" height="620" as="geometry" />
        </mxCell>
        <mxCell id="SD6BFe2wW6tSJZ-N4x0d-10" value="" style="edgeStyle=orthogonalEdgeStyle;rounded=0;orthogonalLoop=1;jettySize=auto;html=1;" edge="1" parent="SD6BFe2wW6tSJZ-N4x0d-9" source="SD6BFe2wW6tSJZ-N4x0d-11" target="SD6BFe2wW6tSJZ-N4x0d-13">
          <mxGeometry relative="1" as="geometry" />
        </mxCell>
        <mxCell id="SD6BFe2wW6tSJZ-N4x0d-11" value="&lt;b&gt;H,W,D&lt;/b&gt;" style="shape=parallelogram;perimeter=parallelogramPerimeter;whiteSpace=wrap;html=1;fixedSize=1;" vertex="1" parent="SD6BFe2wW6tSJZ-N4x0d-9">
          <mxGeometry x="10" y="30" width="120" height="60" as="geometry" />
        </mxCell>
        <mxCell id="SD6BFe2wW6tSJZ-N4x0d-12" style="edgeStyle=orthogonalEdgeStyle;rounded=0;orthogonalLoop=1;jettySize=auto;html=1;entryX=0.5;entryY=0;entryDx=0;entryDy=0;" edge="1" parent="SD6BFe2wW6tSJZ-N4x0d-9" source="SD6BFe2wW6tSJZ-N4x0d-13" target="SD6BFe2wW6tSJZ-N4x0d-15">
          <mxGeometry relative="1" as="geometry" />
        </mxCell>
        <mxCell id="SD6BFe2wW6tSJZ-N4x0d-13" value="Start" style="ellipse;whiteSpace=wrap;html=1;fillColor=#d5e8d4;strokeColor=#82b366;" vertex="1" parent="SD6BFe2wW6tSJZ-N4x0d-9">
          <mxGeometry x="10" y="110" width="120" height="80" as="geometry" />
        </mxCell>
        <mxCell id="SD6BFe2wW6tSJZ-N4x0d-14" value="" style="edgeStyle=orthogonalEdgeStyle;rounded=0;orthogonalLoop=1;jettySize=auto;html=1;" edge="1" parent="SD6BFe2wW6tSJZ-N4x0d-9" source="SD6BFe2wW6tSJZ-N4x0d-15" target="SD6BFe2wW6tSJZ-N4x0d-19">
          <mxGeometry relative="1" as="geometry" />
        </mxCell>
        <mxCell id="SD6BFe2wW6tSJZ-N4x0d-15" value="Set &lt;b&gt;Walls 1&lt;/b&gt; to &lt;b&gt;H&lt;/b&gt;x&lt;b&gt;W&lt;/b&gt;x2" style="rounded=1;whiteSpace=wrap;html=1;" vertex="1" parent="SD6BFe2wW6tSJZ-N4x0d-9">
          <mxGeometry x="10" y="210" width="120" height="60" as="geometry" />
        </mxCell>
        <mxCell id="SD6BFe2wW6tSJZ-N4x0d-16" value="" style="edgeStyle=orthogonalEdgeStyle;rounded=0;orthogonalLoop=1;jettySize=auto;html=1;" edge="1" parent="SD6BFe2wW6tSJZ-N4x0d-9" source="SD6BFe2wW6tSJZ-N4x0d-17" target="SD6BFe2wW6tSJZ-N4x0d-21">
          <mxGeometry relative="1" as="geometry" />
        </mxCell>
        <mxCell id="SD6BFe2wW6tSJZ-N4x0d-17" value="Set &lt;b&gt;Walls 2&lt;/b&gt; to &lt;b&gt;H&lt;/b&gt;x&lt;b&gt;D&lt;/b&gt;x2" style="rounded=1;whiteSpace=wrap;html=1;" vertex="1" parent="SD6BFe2wW6tSJZ-N4x0d-9">
          <mxGeometry x="10" y="290" width="120" height="60" as="geometry" />
        </mxCell>
        <mxCell id="SD6BFe2wW6tSJZ-N4x0d-18" value="" style="edgeStyle=orthogonalEdgeStyle;rounded=0;orthogonalLoop=1;jettySize=auto;html=1;" edge="1" parent="SD6BFe2wW6tSJZ-N4x0d-9" source="SD6BFe2wW6tSJZ-N4x0d-19" target="SD6BFe2wW6tSJZ-N4x0d-21">
          <mxGeometry relative="1" as="geometry" />
        </mxCell>
        <mxCell id="SD6BFe2wW6tSJZ-N4x0d-19" value="Set &lt;b&gt;Surface Area &lt;/b&gt;to&amp;nbsp;&lt;b&gt;Walls 1&lt;/b&gt;+&lt;b&gt;Walls 2&lt;/b&gt;" style="rounded=1;whiteSpace=wrap;html=1;" vertex="1" parent="SD6BFe2wW6tSJZ-N4x0d-9">
          <mxGeometry x="10" y="370" width="120" height="60" as="geometry" />
        </mxCell>
        <mxCell id="SD6BFe2wW6tSJZ-N4x0d-20" value="" style="edgeStyle=orthogonalEdgeStyle;rounded=0;orthogonalLoop=1;jettySize=auto;html=1;" edge="1" parent="SD6BFe2wW6tSJZ-N4x0d-9" source="SD6BFe2wW6tSJZ-N4x0d-21" target="SD6BFe2wW6tSJZ-N4x0d-22">
          <mxGeometry relative="1" as="geometry" />
        </mxCell>
        <mxCell id="SD6BFe2wW6tSJZ-N4x0d-21" value="End" style="ellipse;whiteSpace=wrap;html=1;fillColor=#f8cecc;strokeColor=#b85450;" vertex="1" parent="SD6BFe2wW6tSJZ-N4x0d-9">
          <mxGeometry x="10" y="450" width="120" height="80" as="geometry" />
        </mxCell>
        <mxCell id="SD6BFe2wW6tSJZ-N4x0d-22" value="&lt;b&gt;Surface Area&lt;/b&gt;" style="shape=parallelogram;perimeter=parallelogramPerimeter;whiteSpace=wrap;html=1;fixedSize=1;" vertex="1" parent="SD6BFe2wW6tSJZ-N4x0d-9">
          <mxGeometry x="10" y="550" width="120" height="60" as="geometry" />
        </mxCell>
        <mxCell id="SD6BFe2wW6tSJZ-N4x0d-23" value="&lt;b&gt;Height,&lt;br&gt;Closet W,&lt;br&gt;Closet D&lt;/b&gt;" style="edgeStyle=orthogonalEdgeStyle;rounded=0;orthogonalLoop=1;jettySize=auto;html=1;exitX=0.5;exitY=1;exitDx=0;exitDy=0;" edge="1" parent="1" source="SD6BFe2wW6tSJZ-N4x0d-61" target="SD6BFe2wW6tSJZ-N4x0d-28">
          <mxGeometry relative="1" as="geometry">
            <mxPoint x="300" y="470" as="sourcePoint" />
            <Array as="points" />
          </mxGeometry>
        </mxCell>
        <mxCell id="SD6BFe2wW6tSJZ-N4x0d-24" value="&lt;b&gt;Main Door W,&lt;br&gt;Main Door H&lt;/b&gt;" style="edgeStyle=orthogonalEdgeStyle;rounded=0;orthogonalLoop=1;jettySize=auto;html=1;exitX=0.5;exitY=1;exitDx=0;exitDy=0;" edge="1" parent="1" source="SD6BFe2wW6tSJZ-N4x0d-77" target="SD6BFe2wW6tSJZ-N4x0d-47">
          <mxGeometry relative="1" as="geometry">
            <mxPoint x="100" y="630" as="sourcePoint" />
          </mxGeometry>
        </mxCell>
        <mxCell id="SD6BFe2wW6tSJZ-N4x0d-25" value="" style="edgeStyle=orthogonalEdgeStyle;rounded=0;orthogonalLoop=1;jettySize=auto;html=1;" edge="1" parent="1" source="SD6BFe2wW6tSJZ-N4x0d-26" target="SD6BFe2wW6tSJZ-N4x0d-77">
          <mxGeometry relative="1" as="geometry" />
        </mxCell>
        <mxCell id="SD6BFe2wW6tSJZ-N4x0d-26" value="Set &lt;b&gt;Main Room Area&amp;nbsp;&lt;/b&gt;to &lt;b&gt;Result&lt;/b&gt;" style="rounded=1;whiteSpace=wrap;html=1;" vertex="1" parent="1">
          <mxGeometry x="40" y="470" width="120" height="60" as="geometry" />
        </mxCell>
        <mxCell id="SD6BFe2wW6tSJZ-N4x0d-27" value="Result" style="edgeStyle=orthogonalEdgeStyle;rounded=0;orthogonalLoop=1;jettySize=auto;html=1;fontStyle=1" edge="1" parent="1" source="SD6BFe2wW6tSJZ-N4x0d-28" target="SD6BFe2wW6tSJZ-N4x0d-31">
          <mxGeometry relative="1" as="geometry" />
        </mxCell>
        <mxCell id="SD6BFe2wW6tSJZ-N4x0d-28" value="Calculate Space Area" style="shape=process;whiteSpace=wrap;html=1;backgroundOutline=1;" vertex="1" parent="1">
          <mxGeometry x="240" y="570" width="120" height="60" as="geometry" />
        </mxCell>
        <mxCell id="SD6BFe2wW6tSJZ-N4x0d-29" value="Window H,&lt;br&gt;Window D" style="edgeStyle=orthogonalEdgeStyle;rounded=0;orthogonalLoop=1;jettySize=auto;html=1;entryX=0.5;entryY=0;entryDx=0;entryDy=0;fontStyle=1;exitX=0.5;exitY=1;exitDx=0;exitDy=0;" edge="1" parent="1" source="SD6BFe2wW6tSJZ-N4x0d-63" target="SD6BFe2wW6tSJZ-N4x0d-43">
          <mxGeometry relative="1" as="geometry">
            <mxPoint x="100" y="1070" as="sourcePoint" />
          </mxGeometry>
        </mxCell>
        <mxCell id="SD6BFe2wW6tSJZ-N4x0d-30" value="" style="edgeStyle=orthogonalEdgeStyle;rounded=0;orthogonalLoop=1;jettySize=auto;html=1;" edge="1" parent="1" source="SD6BFe2wW6tSJZ-N4x0d-31" target="SD6BFe2wW6tSJZ-N4x0d-78">
          <mxGeometry relative="1" as="geometry" />
        </mxCell>
        <mxCell id="SD6BFe2wW6tSJZ-N4x0d-31" value="Set &lt;b&gt;Closet Area&lt;/b&gt;&amp;nbsp;to &lt;b&gt;Result&lt;/b&gt;" style="rounded=1;whiteSpace=wrap;html=1;" vertex="1" parent="1">
          <mxGeometry x="240" y="670" width="120" height="60" as="geometry" />
        </mxCell>
        <mxCell id="SD6BFe2wW6tSJZ-N4x0d-32" value="Calculate Void Area" style="swimlane;whiteSpace=wrap;html=1;" vertex="1" parent="1">
          <mxGeometry x="520" y="10" width="140" height="460" as="geometry" />
        </mxCell>
        <mxCell id="SD6BFe2wW6tSJZ-N4x0d-33" style="edgeStyle=orthogonalEdgeStyle;rounded=0;orthogonalLoop=1;jettySize=auto;html=1;exitX=0.5;exitY=1;exitDx=0;exitDy=0;entryX=0.5;entryY=0;entryDx=0;entryDy=0;" edge="1" parent="SD6BFe2wW6tSJZ-N4x0d-32" source="SD6BFe2wW6tSJZ-N4x0d-34" target="SD6BFe2wW6tSJZ-N4x0d-36">
          <mxGeometry relative="1" as="geometry" />
        </mxCell>
        <mxCell id="SD6BFe2wW6tSJZ-N4x0d-34" value="&lt;b&gt;H, W&lt;/b&gt;" style="shape=parallelogram;perimeter=parallelogramPerimeter;whiteSpace=wrap;html=1;fixedSize=1;" vertex="1" parent="SD6BFe2wW6tSJZ-N4x0d-32">
          <mxGeometry x="10" y="30" width="120" height="60" as="geometry" />
        </mxCell>
        <mxCell id="SD6BFe2wW6tSJZ-N4x0d-35" style="edgeStyle=orthogonalEdgeStyle;rounded=0;orthogonalLoop=1;jettySize=auto;html=1;exitX=0.5;exitY=1;exitDx=0;exitDy=0;entryX=0.5;entryY=0;entryDx=0;entryDy=0;" edge="1" parent="SD6BFe2wW6tSJZ-N4x0d-32" source="SD6BFe2wW6tSJZ-N4x0d-36" target="SD6BFe2wW6tSJZ-N4x0d-39">
          <mxGeometry relative="1" as="geometry" />
        </mxCell>
        <mxCell id="SD6BFe2wW6tSJZ-N4x0d-36" value="Start" style="ellipse;whiteSpace=wrap;html=1;fillColor=#d5e8d4;strokeColor=#82b366;" vertex="1" parent="SD6BFe2wW6tSJZ-N4x0d-32">
          <mxGeometry x="10" y="110" width="120" height="80" as="geometry" />
        </mxCell>
        <mxCell id="SD6BFe2wW6tSJZ-N4x0d-37" value="Void Area" style="shape=parallelogram;perimeter=parallelogramPerimeter;whiteSpace=wrap;html=1;fixedSize=1;fontStyle=1" vertex="1" parent="SD6BFe2wW6tSJZ-N4x0d-32">
          <mxGeometry x="10" y="390" width="120" height="60" as="geometry" />
        </mxCell>
        <mxCell id="SD6BFe2wW6tSJZ-N4x0d-38" style="edgeStyle=orthogonalEdgeStyle;rounded=0;orthogonalLoop=1;jettySize=auto;html=1;exitX=0.5;exitY=1;exitDx=0;exitDy=0;entryX=0.5;entryY=0;entryDx=0;entryDy=0;" edge="1" parent="SD6BFe2wW6tSJZ-N4x0d-32" source="SD6BFe2wW6tSJZ-N4x0d-39" target="SD6BFe2wW6tSJZ-N4x0d-41">
          <mxGeometry relative="1" as="geometry" />
        </mxCell>
        <mxCell id="SD6BFe2wW6tSJZ-N4x0d-39" value="Set &lt;b&gt;Void Area&lt;/b&gt;&amp;nbsp;to&amp;nbsp;&lt;b&gt;H&lt;/b&gt;x&lt;b&gt;W&lt;/b&gt;" style="rounded=1;whiteSpace=wrap;html=1;" vertex="1" parent="SD6BFe2wW6tSJZ-N4x0d-32">
          <mxGeometry x="10" y="210" width="120" height="60" as="geometry" />
        </mxCell>
        <mxCell id="SD6BFe2wW6tSJZ-N4x0d-40" style="edgeStyle=orthogonalEdgeStyle;rounded=0;orthogonalLoop=1;jettySize=auto;html=1;exitX=0.5;exitY=1;exitDx=0;exitDy=0;entryX=0.5;entryY=0;entryDx=0;entryDy=0;" edge="1" parent="SD6BFe2wW6tSJZ-N4x0d-32" source="SD6BFe2wW6tSJZ-N4x0d-41" target="SD6BFe2wW6tSJZ-N4x0d-37">
          <mxGeometry relative="1" as="geometry" />
        </mxCell>
        <mxCell id="SD6BFe2wW6tSJZ-N4x0d-41" value="End" style="ellipse;whiteSpace=wrap;html=1;fillColor=#f8cecc;strokeColor=#b85450;" vertex="1" parent="SD6BFe2wW6tSJZ-N4x0d-32">
          <mxGeometry x="10" y="290" width="120" height="80" as="geometry" />
        </mxCell>
        <mxCell id="SD6BFe2wW6tSJZ-N4x0d-42" value="Result" style="edgeStyle=orthogonalEdgeStyle;rounded=0;orthogonalLoop=1;jettySize=auto;html=1;exitX=0.5;exitY=1;exitDx=0;exitDy=0;entryX=0.5;entryY=0;entryDx=0;entryDy=0;fontStyle=1" edge="1" parent="1" source="SD6BFe2wW6tSJZ-N4x0d-43" target="SD6BFe2wW6tSJZ-N4x0d-45">
          <mxGeometry relative="1" as="geometry" />
        </mxCell>
        <mxCell id="SD6BFe2wW6tSJZ-N4x0d-43" value="Calculate Void area" style="shape=process;whiteSpace=wrap;html=1;backgroundOutline=1;" vertex="1" parent="1">
          <mxGeometry x="40" y="1140" width="120" height="60" as="geometry" />
        </mxCell>
        <mxCell id="SD6BFe2wW6tSJZ-N4x0d-44" value="" style="edgeStyle=orthogonalEdgeStyle;rounded=0;orthogonalLoop=1;jettySize=auto;html=1;" edge="1" parent="1" source="SD6BFe2wW6tSJZ-N4x0d-45" target="SD6BFe2wW6tSJZ-N4x0d-75">
          <mxGeometry relative="1" as="geometry" />
        </mxCell>
        <mxCell id="SD6BFe2wW6tSJZ-N4x0d-45" value="Set &lt;b&gt;Window Area&lt;/b&gt;&amp;nbsp;to &lt;b&gt;Result&lt;/b&gt;" style="rounded=1;whiteSpace=wrap;html=1;" vertex="1" parent="1">
          <mxGeometry x="40" y="1240" width="120" height="60" as="geometry" />
        </mxCell>
        <mxCell id="SD6BFe2wW6tSJZ-N4x0d-46" value="Result" style="edgeStyle=orthogonalEdgeStyle;rounded=0;orthogonalLoop=1;jettySize=auto;html=1;exitX=0.5;exitY=1;exitDx=0;exitDy=0;entryX=0.5;entryY=0;entryDx=0;entryDy=0;fontStyle=1" edge="1" parent="1" source="SD6BFe2wW6tSJZ-N4x0d-47" target="SD6BFe2wW6tSJZ-N4x0d-49">
          <mxGeometry relative="1" as="geometry" />
        </mxCell>
        <mxCell id="SD6BFe2wW6tSJZ-N4x0d-47" value="Calculate Void area" style="shape=process;whiteSpace=wrap;html=1;backgroundOutline=1;" vertex="1" parent="1">
          <mxGeometry x="40" y="690" width="120" height="60" as="geometry" />
        </mxCell>
        <mxCell id="SD6BFe2wW6tSJZ-N4x0d-48" value="" style="edgeStyle=orthogonalEdgeStyle;rounded=0;orthogonalLoop=1;jettySize=auto;html=1;" edge="1" parent="1" source="SD6BFe2wW6tSJZ-N4x0d-49" target="SD6BFe2wW6tSJZ-N4x0d-72">
          <mxGeometry relative="1" as="geometry" />
        </mxCell>
        <mxCell id="SD6BFe2wW6tSJZ-N4x0d-49" value="Set &lt;b&gt;Main Door Area&lt;/b&gt;&amp;nbsp;to &lt;b&gt;Result&lt;/b&gt;" style="rounded=1;whiteSpace=wrap;html=1;" vertex="1" parent="1">
          <mxGeometry x="40" y="790" width="120" height="60" as="geometry" />
        </mxCell>
        <mxCell id="SD6BFe2wW6tSJZ-N4x0d-51" value="" style="edgeStyle=orthogonalEdgeStyle;rounded=0;orthogonalLoop=1;jettySize=auto;html=1;" edge="1" parent="1" source="SD6BFe2wW6tSJZ-N4x0d-52" target="SD6BFe2wW6tSJZ-N4x0d-54">
          <mxGeometry relative="1" as="geometry" />
        </mxCell>
        <mxCell id="SD6BFe2wW6tSJZ-N4x0d-52" value="Set &lt;b&gt;Coverage &lt;/b&gt;to &lt;b&gt;Total Area&lt;/b&gt;x2" style="whiteSpace=wrap;html=1;rounded=1;direction=west;" vertex="1" parent="1">
          <mxGeometry x="420" y="670" width="120" height="60" as="geometry" />
        </mxCell>
        <mxCell id="SD6BFe2wW6tSJZ-N4x0d-53" value="" style="edgeStyle=orthogonalEdgeStyle;rounded=0;orthogonalLoop=1;jettySize=auto;html=1;" edge="1" parent="1" source="SD6BFe2wW6tSJZ-N4x0d-54" target="SD6BFe2wW6tSJZ-N4x0d-56">
          <mxGeometry relative="1" as="geometry" />
        </mxCell>
        <mxCell id="SD6BFe2wW6tSJZ-N4x0d-54" value="Set &lt;b&gt;Gallons&lt;/b&gt;&amp;nbsp;to &lt;b&gt;Coverage&lt;/b&gt;/&lt;b&gt;Coverage Rate&lt;/b&gt;" style="whiteSpace=wrap;html=1;rounded=1;" vertex="1" parent="1">
          <mxGeometry x="420" y="760" width="120" height="60" as="geometry" />
        </mxCell>
        <mxCell id="SD6BFe2wW6tSJZ-N4x0d-55" style="edgeStyle=orthogonalEdgeStyle;rounded=0;orthogonalLoop=1;jettySize=auto;html=1;exitX=0.5;exitY=1;exitDx=0;exitDy=0;entryX=0.5;entryY=0;entryDx=0;entryDy=0;" edge="1" parent="1" source="SD6BFe2wW6tSJZ-N4x0d-56" target="SD6BFe2wW6tSJZ-N4x0d-58">
          <mxGeometry relative="1" as="geometry" />
        </mxCell>
        <mxCell id="SD6BFe2wW6tSJZ-N4x0d-56" value="Round &lt;b&gt;Gallons&lt;/b&gt;&amp;nbsp;up to the nearest whole number" style="whiteSpace=wrap;html=1;rounded=1;" vertex="1" parent="1">
          <mxGeometry x="420" y="850" width="120" height="60" as="geometry" />
        </mxCell>
        <mxCell id="SD6BFe2wW6tSJZ-N4x0d-57" value="" style="edgeStyle=orthogonalEdgeStyle;rounded=0;orthogonalLoop=1;jettySize=auto;html=1;" edge="1" parent="1" source="SD6BFe2wW6tSJZ-N4x0d-58" target="SD6BFe2wW6tSJZ-N4x0d-59">
          <mxGeometry relative="1" as="geometry" />
        </mxCell>
        <mxCell id="SD6BFe2wW6tSJZ-N4x0d-58" value="End" style="ellipse;whiteSpace=wrap;html=1;fillColor=#f8cecc;strokeColor=#b85450;" vertex="1" parent="1">
          <mxGeometry x="620" y="690" width="120" height="80" as="geometry" />
        </mxCell>
        <mxCell id="SD6BFe2wW6tSJZ-N4x0d-59" value="&lt;b&gt;Gallons&lt;/b&gt;" style="shape=parallelogram;perimeter=parallelogramPerimeter;whiteSpace=wrap;html=1;fixedSize=1;" vertex="1" parent="1">
          <mxGeometry x="620" y="790" width="120" height="60" as="geometry" />
        </mxCell>
        <mxCell id="SD6BFe2wW6tSJZ-N4x0d-60" style="edgeStyle=orthogonalEdgeStyle;rounded=0;orthogonalLoop=1;jettySize=auto;html=1;exitX=1;exitY=0.5;exitDx=0;exitDy=0;" edge="1" parent="1" source="SD6BFe2wW6tSJZ-N4x0d-61" target="SD6BFe2wW6tSJZ-N4x0d-84">
          <mxGeometry relative="1" as="geometry" />
        </mxCell>
        <mxCell id="SD6BFe2wW6tSJZ-N4x0d-61" value="Is there a closet?" style="rhombus;whiteSpace=wrap;html=1;" vertex="1" parent="1">
          <mxGeometry x="260" y="410" width="80" height="80" as="geometry" />
        </mxCell>
        <mxCell id="SD6BFe2wW6tSJZ-N4x0d-62" style="edgeStyle=orthogonalEdgeStyle;rounded=0;orthogonalLoop=1;jettySize=auto;html=1;exitX=1;exitY=0.5;exitDx=0;exitDy=0;entryX=0.5;entryY=0;entryDx=0;entryDy=0;" edge="1" parent="1" source="SD6BFe2wW6tSJZ-N4x0d-63" target="SD6BFe2wW6tSJZ-N4x0d-82">
          <mxGeometry relative="1" as="geometry">
            <mxPoint x="250" y="350" as="targetPoint" />
            <Array as="points">
              <mxPoint x="180" y="1020" />
              <mxPoint x="180" y="290" />
              <mxPoint x="300" y="290" />
            </Array>
          </mxGeometry>
        </mxCell>
        <mxCell id="SD6BFe2wW6tSJZ-N4x0d-63" value="Is there a window?" style="rhombus;whiteSpace=wrap;html=1;" vertex="1" parent="1">
          <mxGeometry x="60" y="980" width="80" height="80" as="geometry" />
        </mxCell>
        <mxCell id="SD6BFe2wW6tSJZ-N4x0d-64" value="Closet Door H,&lt;br&gt;Closet Door D" style="edgeStyle=orthogonalEdgeStyle;rounded=0;orthogonalLoop=1;jettySize=auto;html=1;entryX=0.5;entryY=0;entryDx=0;entryDy=0;fontStyle=1;exitX=0.5;exitY=1;exitDx=0;exitDy=0;" edge="1" parent="1" source="SD6BFe2wW6tSJZ-N4x0d-78" target="SD6BFe2wW6tSJZ-N4x0d-66">
          <mxGeometry relative="1" as="geometry">
            <mxPoint x="300" y="870" as="sourcePoint" />
          </mxGeometry>
        </mxCell>
        <mxCell id="SD6BFe2wW6tSJZ-N4x0d-65" value="Result" style="edgeStyle=orthogonalEdgeStyle;rounded=0;orthogonalLoop=1;jettySize=auto;html=1;exitX=0.5;exitY=1;exitDx=0;exitDy=0;entryX=0.5;entryY=0;entryDx=0;entryDy=0;fontStyle=1" edge="1" parent="1" source="SD6BFe2wW6tSJZ-N4x0d-66" target="SD6BFe2wW6tSJZ-N4x0d-68">
          <mxGeometry relative="1" as="geometry" />
        </mxCell>
        <mxCell id="SD6BFe2wW6tSJZ-N4x0d-66" value="Calculate Void area" style="shape=process;whiteSpace=wrap;html=1;backgroundOutline=1;" vertex="1" parent="1">
          <mxGeometry x="240" y="890" width="120" height="60" as="geometry" />
        </mxCell>
        <mxCell id="SD6BFe2wW6tSJZ-N4x0d-67" value="" style="edgeStyle=orthogonalEdgeStyle;rounded=0;orthogonalLoop=1;jettySize=auto;html=1;" edge="1" parent="1" source="SD6BFe2wW6tSJZ-N4x0d-68" target="SD6BFe2wW6tSJZ-N4x0d-80">
          <mxGeometry relative="1" as="geometry" />
        </mxCell>
        <mxCell id="SD6BFe2wW6tSJZ-N4x0d-68" value="Set &lt;b&gt;Closet Door Area&lt;/b&gt;&amp;nbsp;to &lt;b&gt;Result&lt;/b&gt;" style="rounded=1;whiteSpace=wrap;html=1;" vertex="1" parent="1">
          <mxGeometry x="240" y="1000" width="120" height="60" as="geometry" />
        </mxCell>
        <mxCell id="SD6BFe2wW6tSJZ-N4x0d-69" value="" style="edgeStyle=orthogonalEdgeStyle;rounded=0;orthogonalLoop=1;jettySize=auto;html=1;" edge="1" parent="1" source="SD6BFe2wW6tSJZ-N4x0d-70" target="SD6BFe2wW6tSJZ-N4x0d-52">
          <mxGeometry relative="1" as="geometry" />
        </mxCell>
        <mxCell id="SD6BFe2wW6tSJZ-N4x0d-70" value="Set &lt;b&gt;Total Area &lt;/b&gt;to &lt;b&gt;Paint Area-Void Area&lt;/b&gt;" style="whiteSpace=wrap;html=1;rounded=1;" vertex="1" parent="1">
          <mxGeometry x="420" y="570" width="120" height="60" as="geometry" />
        </mxCell>
        <mxCell id="SD6BFe2wW6tSJZ-N4x0d-71" value="" style="edgeStyle=orthogonalEdgeStyle;rounded=0;orthogonalLoop=1;jettySize=auto;html=1;" edge="1" parent="1" source="SD6BFe2wW6tSJZ-N4x0d-72" target="SD6BFe2wW6tSJZ-N4x0d-63">
          <mxGeometry relative="1" as="geometry" />
        </mxCell>
        <mxCell id="SD6BFe2wW6tSJZ-N4x0d-72" value="Set &lt;b&gt;Void Area &lt;/b&gt;to&lt;b&gt;&amp;nbsp;Main Door Area&lt;/b&gt;" style="rounded=1;whiteSpace=wrap;html=1;" vertex="1" parent="1">
          <mxGeometry x="40" y="880" width="120" height="60" as="geometry" />
        </mxCell>
        <mxCell id="SD6BFe2wW6tSJZ-N4x0d-73" value="Yes" style="text;html=1;align=center;verticalAlign=middle;whiteSpace=wrap;rounded=0;" vertex="1" parent="1">
          <mxGeometry x="50" y="1050" width="60" height="30" as="geometry" />
        </mxCell>
        <mxCell id="SD6BFe2wW6tSJZ-N4x0d-74" style="edgeStyle=orthogonalEdgeStyle;rounded=0;orthogonalLoop=1;jettySize=auto;html=1;exitX=0.5;exitY=1;exitDx=0;exitDy=0;entryX=0;entryY=0.5;entryDx=0;entryDy=0;" edge="1" parent="1" source="SD6BFe2wW6tSJZ-N4x0d-75" target="SD6BFe2wW6tSJZ-N4x0d-82">
          <mxGeometry relative="1" as="geometry">
            <mxPoint x="230" y="370" as="targetPoint" />
          </mxGeometry>
        </mxCell>
        <mxCell id="SD6BFe2wW6tSJZ-N4x0d-75" value="Set &lt;b&gt;Void Area&lt;/b&gt;&amp;nbsp;to&lt;br&gt;(&lt;b&gt;Void Area&lt;/b&gt;+&lt;b&gt;Window Area&lt;/b&gt;)" style="rounded=1;whiteSpace=wrap;html=1;" vertex="1" parent="1">
          <mxGeometry x="40" y="1330" width="120" height="60" as="geometry" />
        </mxCell>
        <mxCell id="SD6BFe2wW6tSJZ-N4x0d-76" value="No" style="text;html=1;align=center;verticalAlign=middle;whiteSpace=wrap;rounded=0;" vertex="1" parent="1">
          <mxGeometry x="130" y="990" width="60" height="30" as="geometry" />
        </mxCell>
        <mxCell id="SD6BFe2wW6tSJZ-N4x0d-77" value="Set&amp;nbsp;&lt;b&gt;Paint Area&lt;/b&gt;&amp;nbsp;to &lt;b&gt;Main Room Area&lt;/b&gt;" style="rounded=1;whiteSpace=wrap;html=1;" vertex="1" parent="1">
          <mxGeometry x="40" y="560" width="120" height="60" as="geometry" />
        </mxCell>
        <mxCell id="SD6BFe2wW6tSJZ-N4x0d-78" value="Set&amp;nbsp;&lt;b&gt;Paint Area&lt;/b&gt;&amp;nbsp;to (&lt;b&gt;Paint Area+Closet Area)&amp;nbsp;&lt;/b&gt;" style="rounded=1;whiteSpace=wrap;html=1;" vertex="1" parent="1">
          <mxGeometry x="240" y="770" width="120" height="60" as="geometry" />
        </mxCell>
        <mxCell id="SD6BFe2wW6tSJZ-N4x0d-79" style="edgeStyle=orthogonalEdgeStyle;rounded=0;orthogonalLoop=1;jettySize=auto;html=1;exitX=0.5;exitY=1;exitDx=0;exitDy=0;entryX=0;entryY=0.5;entryDx=0;entryDy=0;" edge="1" parent="1" source="SD6BFe2wW6tSJZ-N4x0d-80" target="SD6BFe2wW6tSJZ-N4x0d-84">
          <mxGeometry relative="1" as="geometry">
            <Array as="points">
              <mxPoint x="300" y="1170" />
              <mxPoint x="390" y="1170" />
              <mxPoint x="390" y="520" />
            </Array>
          </mxGeometry>
        </mxCell>
        <mxCell id="SD6BFe2wW6tSJZ-N4x0d-80" value="Set &lt;b&gt;Void Area&lt;/b&gt;&amp;nbsp;to&lt;br&gt;(&lt;b&gt;Void Area&lt;/b&gt;+2(&lt;b&gt;Closet Door Area&lt;/b&gt;)" style="rounded=1;whiteSpace=wrap;html=1;" vertex="1" parent="1">
          <mxGeometry x="240" y="1090" width="120" height="60" as="geometry" />
        </mxCell>
        <mxCell id="SD6BFe2wW6tSJZ-N4x0d-81" value="" style="edgeStyle=orthogonalEdgeStyle;rounded=0;orthogonalLoop=1;jettySize=auto;html=1;" edge="1" parent="1" source="SD6BFe2wW6tSJZ-N4x0d-82" target="SD6BFe2wW6tSJZ-N4x0d-61">
          <mxGeometry relative="1" as="geometry" />
        </mxCell>
        <mxCell id="SD6BFe2wW6tSJZ-N4x0d-82" value="" style="ellipse;whiteSpace=wrap;html=1;aspect=fixed;fillColor=#f5f5f5;fontColor=#333333;strokeColor=#666666;" vertex="1" parent="1">
          <mxGeometry x="280" y="320" width="40" height="40" as="geometry" />
        </mxCell>
        <mxCell id="SD6BFe2wW6tSJZ-N4x0d-83" value="" style="edgeStyle=orthogonalEdgeStyle;rounded=0;orthogonalLoop=1;jettySize=auto;html=1;" edge="1" parent="1" source="SD6BFe2wW6tSJZ-N4x0d-84" target="SD6BFe2wW6tSJZ-N4x0d-70">
          <mxGeometry relative="1" as="geometry" />
        </mxCell>
        <mxCell id="SD6BFe2wW6tSJZ-N4x0d-84" value="" style="ellipse;whiteSpace=wrap;html=1;aspect=fixed;fillColor=#f5f5f5;fontColor=#333333;strokeColor=#666666;" vertex="1" parent="1">
          <mxGeometry x="460" y="500" width="40" height="40" as="geometry" />
        </mxCell>
        <mxCell id="SD6BFe2wW6tSJZ-N4x0d-85" value="Yes" style="text;html=1;align=center;verticalAlign=middle;whiteSpace=wrap;rounded=0;" vertex="1" parent="1">
          <mxGeometry x="250" y="480" width="60" height="30" as="geometry" />
        </mxCell>
        <mxCell id="SD6BFe2wW6tSJZ-N4x0d-86" value="No" style="text;html=1;align=center;verticalAlign=middle;whiteSpace=wrap;rounded=0;" vertex="1" parent="1">
          <mxGeometry x="320" y="420" width="60" height="30" as="geometry" />
        </mxCell>
      </root>
    </mxGraphModel>
  </diagram>
</mxfile>
